HIERARCHY
ROOT Hips
{
	OFFSET 0.000000 0.000000 0.000000
	CHANNELS 6 Xposition Yposition Zposition Zrotation Yrotation Xrotation 
	JOINT LHipJoint
	{
		OFFSET 0.000000 0.000000 0.000000
		CHANNELS 3 Zrotation Yrotation Xrotation
		JOINT LeftUpLeg
		{
			OFFSET 1.363060 -1.794630 0.839290
			CHANNELS 3 Zrotation Yrotation Xrotation
			JOINT LeftLeg
			{
				OFFSET 2.448110 -6.726130 0.000000
				CHANNELS 3 Zrotation Yrotation Xrotation
				JOINT LeftFoot
				{
					OFFSET 2.562200 -7.039590 0.000000
					CHANNELS 3 Zrotation Yrotation Xrotation
					JOINT LeftToeBase
					{
						OFFSET 0.157640 -0.433110 2.322550
						CHANNELS 3 Zrotation Yrotation Xrotation
						End Site
						{
							OFFSET 0.000000 0.000000 0.000000
						}
					}
				}
			}
		}
	}
	JOINT RHipJoint
	{
		OFFSET 0.000000 0.000000 0.000000
		CHANNELS 3 Zrotation Yrotation Xrotation
		JOINT RightUpLeg
		{
			OFFSET -1.305520 -1.794630 0.839290
			CHANNELS 3 Zrotation Yrotation Xrotation
			JOINT RightLeg
			{
				OFFSET -2.542530 -6.985550 0.000000
				CHANNELS 3 Zrotation Yrotation Xrotation
				JOINT RightFoot
				{
					OFFSET -2.568260 -7.056230 0.000000
					CHANNELS 3 Zrotation Yrotation Xrotation
					JOINT RightToeBase
					{
						OFFSET -0.164730 -0.452590 2.363150
						CHANNELS 3 Zrotation Yrotation Xrotation
						End Site
						{
							OFFSET 0.000000 0.000000 0.000000
						}
					}
				}
			}
		}
	}
	JOINT LowerBack
	{
		OFFSET 0.000000 0.000000 0.000000
		CHANNELS 3 Zrotation Yrotation Xrotation
		JOINT Spine
		{
			OFFSET 0.028270 2.035590 -0.193380
			CHANNELS 3 Zrotation Yrotation Xrotation
			JOINT Spine1
			{
				OFFSET 0.056720 2.048850 -0.042750
				CHANNELS 3 Zrotation Yrotation Xrotation
				JOINT Neck
				{
					OFFSET 0.000000 0.000000 0.000000
					CHANNELS 3 Zrotation Yrotation Xrotation
					JOINT Neck1
					{
						OFFSET -0.054170 1.746240 0.172020
						CHANNELS 3 Zrotation Yrotation Xrotation
						JOINT Head
						{
							OFFSET 0.104070 1.761360 -0.123970
							CHANNELS 3 Zrotation Yrotation Xrotation
							End Site
							{
								OFFSET 0.000000 0.000000 0.000000
							}
						}
					}
				}
				JOINT LeftShoulder
				{
					OFFSET 0.000000 0.000000 0.000000
					CHANNELS 3 Zrotation Yrotation Xrotation
					JOINT LeftArm
					{
						OFFSET 3.362410 1.200890 -0.311210
						CHANNELS 3 Zrotation Yrotation Xrotation
						JOINT LeftForeArm
						{
							OFFSET 4.983000 -0.000000 -0.000000
							CHANNELS 3 Zrotation Yrotation Xrotation
							JOINT LeftHand
							{
								OFFSET 3.483560 -0.000000 -0.000000
								CHANNELS 3 Zrotation Yrotation Xrotation
								JOINT LeftFingerBase
								{
									OFFSET 0.000000 0.000000 0.000000
									CHANNELS 3 Zrotation Yrotation Xrotation
									JOINT LeftHandIndex1
									{
										OFFSET 0.715260 -0.000000 -0.000000
										CHANNELS 3 Zrotation Yrotation Xrotation
										End Site
										{
											OFFSET 0.000000 0.000000 0.000000
										}
									}
								}
								JOINT LThumb
								{
									OFFSET 0.000000 0.000000 0.000000
									CHANNELS 3 Zrotation Yrotation Xrotation
									End Site
									{
										OFFSET 0.000000 0.000000 0.000000
									}
								}
							}
						}
					}
				}
				JOINT RightShoulder
				{
					OFFSET 0.000000 0.000000 0.000000
					CHANNELS 3 Zrotation Yrotation Xrotation
					JOINT RightArm
					{
						OFFSET -3.136600 1.374050 -0.404650
						CHANNELS 3 Zrotation Yrotation Xrotation
						JOINT RightForeArm
						{
							OFFSET -5.241900 -0.000000 -0.000000
							CHANNELS 3 Zrotation Yrotation Xrotation
							JOINT RightHand
							{
								OFFSET -3.444170 -0.000000 -0.000000
								CHANNELS 3 Zrotation Yrotation Xrotation
								JOINT RightFingerBase
								{
									OFFSET 0.000000 0.000000 0.000000
									CHANNELS 3 Zrotation Yrotation Xrotation
									JOINT RightHandIndex1
									{
										OFFSET -0.622530 -0.000000 -0.000000
										CHANNELS 3 Zrotation Yrotation Xrotation
										End Site
										{
											OFFSET 0.000000 0.000000 0.000000
										}
									}
								}
								JOINT RThumb
								{
									OFFSET 0.000000 0.000000 0.000000
									CHANNELS 3 Zrotation Yrotation Xrotation
									End Site
									{
										OFFSET 0.000000 0.000000 0.000000
									}
								}
							}
						}
					}
				}
			}
		}
	}
}
MOTION
Frames: 11
Frame Time: 0.008333
3.992892 16.788404 5.116146 2.762216 29.050194 -0.005693 -11.927453 5.493429 -0.618913 8.729802 19.403797 10.225970 0.420506 1.923744 27.171529 2.263429 10.897174 26.946534 4.975400 0.000000 -73.789300 8.360353 -1.190714 -1.665678 19.337661 -17.650320 -22.962372 1.963220 -0.822725 26.292091 -5.033692 -19.331631 -21.162414 -176.023299 0.000000 -13.433100 2.604070 -5.364633 -0.849016 0.304491 -5.636367 -2.165495 -4.872094 -5.649628 3.392166 8.404569 -19.380390 -9.253126 -2.077719 -0.137742 -0.372826 0.000000 0.000000 0.000000 2.217334 15.109685 1.439025 -29.359175 -2.999731 -4.048873 -1.817610 -50.224050 -0.006916 2.323007 0.870828 0.016198 -0.144338 0.170591 -0.000000 0.000000 0.000000 0.000000 0.000000 0.000000 0.000000 13.465320 -18.744838 -0.660105 66.460546 -23.477196 -29.452771 4.657906 11.974388 0.007822 -0.353495 2.625469 -0.011725 0.163991 -0.038266 0.000000 0.000000 0.000000 0.000000 0.000000 0.000000 0.000000 
4.021904 16.782919 5.254354 2.768844 28.623333 0.013478 -11.938589 5.471436 -0.536887 8.633667 18.770363 9.713066 0.458626 1.973355 28.732515 2.332840 10.902568 27.742834 5.053400 0.000000 -70.761300 8.351728 -1.219344 -1.668111 19.365090 -17.395521 -22.474038 1.946520 -0.844579 26.637428 -5.059206 -19.319986 -21.640624 -175.830900 -0.000000 -14.092001 2.674208 -5.345549 -0.899023 0.314754 -5.622162 -2.181944 -4.894006 -5.633810 3.374027 8.420238 -19.331294 -9.278195 -2.090043 -0.138508 -0.379164 0.000000 0.000000 0.000000 2.206072 15.176035 1.386077 -29.887313 -2.597043 -3.680700 -1.776204 -51.478017 -0.005105 1.891185 0.690984 0.010299 -0.137542 0.171063 -0.000000 0.000000 0.000000 0.000000 0.000000 0.000000 0.000000 13.472169 -18.637134 -0.629782 66.634492 -23.110509 -29.573315 4.656959 11.859108 0.007735 -0.231864 2.591968 -0.008727 0.162417 -0.038458 0.000000 0.000000 0.000000 0.000000 0.000000 0.000000 0.000000 
4.048155 16.777089 5.390674 2.799968 28.204175 0.047298 -11.935473 5.442452 -0.461902 8.455889 18.093166 9.120023 0.486001 2.030549 30.386010 2.390419 10.956299 28.241897 5.123901 -0.000000 -67.456900 8.353765 -1.239835 -1.674777 19.362830 -17.139915 -21.977675 1.929242 -0.865452 26.972527 -5.089234 -19.317547 -22.157106 -175.622600 0.000000 -14.698500 2.709330 -5.325065 -0.934149 0.316159 -5.604065 -2.194707 -4.920178 -5.613657 3.356867 8.450220 -19.283334 -9.305888 -2.104556 -0.139384 -0.386341 0.000000 0.000000 0.000000 2.202610 15.225385 1.334667 -30.468707 -2.193106 -3.326460 -1.742705 -52.622446 -0.003404 1.473048 0.528215 0.006100 -0.131167 0.170905 -0.000000 0.000000 0.000000 0.000000 0.000000 0.000000 0.000000 13.500838 -18.531353 -0.598358 66.839448 -22.670475 -29.634472 4.652860 11.776583 0.007689 -0.094233 2.572947 -0.005526 0.160545 -0.038670 0.000000 0.000000 0.000000 0.000000 0.000000 0.000000 0.000000 
4.071782 16.771042 5.524855 2.852568 27.794981 0.090092 -11.919714 5.407434 -0.396276 8.209059 17.392083 8.450999 0.505855 2.096574 32.111014 2.436384 11.080089 28.427087 5.197800 -0.000000 -64.079000 8.366377 -1.253368 -1.687380 19.331208 -16.898091 -21.476289 1.912150 -0.885953 27.298415 -5.120470 -19.315386 -22.697619 -175.405300 -0.000000 -15.251700 2.711185 -5.303161 -0.951953 0.309159 -5.582095 -2.203360 -4.949935 -5.589260 3.340572 8.492428 -19.236177 -9.333244 -2.121604 -0.140443 -0.393601 0.000000 0.000000 0.000000 2.207104 15.255514 1.283963 -31.105509 -1.789328 -2.981134 -1.716525 -53.648833 -0.001884 1.084809 0.391852 0.003398 -0.125400 0.170048 -0.000000 0.000000 0.000000 0.000000 0.000000 0.000000 0.000000 13.550599 -18.428174 -0.566855 67.072055 -22.158755 -29.634701 4.645704 11.727870 0.007670 0.058820 2.562527 -0.002025 0.158397 -0.038880 0.000000 0.000000 0.000000 0.000000 0.000000 0.000000 0.000000 
4.092982 16.764923 5.656724 2.921213 27.393911 0.136623 -11.893989 5.367118 -0.342993 7.912869 16.695995 7.706630 0.521184 2.172218 33.893620 2.470720 11.284288 28.276511 5.276900 0.000000 -60.684800 8.388327 -1.261793 -1.705978 19.274967 -16.679095 -20.971368 1.896098 -0.906016 27.611366 -5.150212 -19.306125 -23.247385 -175.186100 -0.000000 -15.753300 2.684109 -5.279285 -0.951438 0.294814 -5.555919 -2.207872 -4.982548 -5.560381 3.324944 8.543839 -19.189537 -9.357122 -2.141364 -0.141750 -0.400121 0.000000 0.000000 0.000000 2.218822 15.264286 1.233056 -31.798423 -1.382646 -2.639604 -1.697029 -54.553163 -0.000598 0.740302 0.289327 0.001994 -0.120404 0.168426 -0.000000 0.000000 0.000000 0.000000 0.000000 0.000000 0.000000 13.618839 -18.327916 -0.536104 67.328346 -21.576898 -29.570118 4.635703 11.714193 0.007654 0.226523 2.552743 0.001876 0.155999 -0.039053 0.000000 0.000000 0.000000 0.000000 0.000000 0.000000 0.000000 
4.111977 16.758908 5.786231 3.001528 26.996719 0.183310 -11.860519 5.321331 -0.301681 7.575725 16.016895 6.897526 0.535751 2.255435 35.696313 2.498662 11.606868 27.827071 5.384100 -0.000000 -57.606900 8.418746 -1.266363 -1.730739 19.197304 -16.489515 -20.463281 1.881865 -0.925250 27.904296 -5.175503 -19.281089 -23.790146 -174.973401 0.000000 -16.195800 2.631838 -5.252659 -0.933547 0.273996 -5.524986 -2.208502 -5.017624 -5.526538 3.309933 8.601972 -19.142484 -9.374852 -2.164146 -0.143375 -0.405206 0.000000 0.000000 0.000000 2.235546 15.253453 1.181067 -32.545656 -0.971316 -2.296283 -1.683665 -55.333521 0.000417 0.450895 0.225093 0.001391 -0.116311 0.165994 -0.000000 0.000000 0.000000 0.000000 0.000000 0.000000 0.000000 13.704436 -18.229796 -0.507188 67.602415 -20.926483 -29.434737 4.623175 11.736658 0.007615 0.408105 2.533943 0.005979 0.153379 -0.039143 0.000000 0.000000 0.000000 0.000000 0.000000 0.000000 0.000000 
4.128974 16.753158 5.913378 3.087629 26.596859 0.227524 -11.822037 5.269817 -0.272878 7.212486 15.374706 6.029119 0.551684 2.344174 37.494291 2.523607 12.061603 27.100109 5.523599 0.000000 -54.938700 8.455778 -1.268770 -1.760033 19.105093 -16.328649 -19.950898 1.870126 -0.942793 28.167607 -5.194352 -19.234071 -24.311455 -174.774500 -0.000000 -16.576200 2.559868 -5.222162 -0.900487 0.247987 -5.488543 -2.205856 -5.054782 -5.487055 3.295373 8.664053 -19.094024 -9.383952 -2.190087 -0.145374 -0.408188 0.000000 0.000000 0.000000 2.254547 15.224605 1.127244 -33.343931 -0.550428 -1.945900 -1.675873 -55.992126 0.001140 0.223709 0.200223 0.001186 -0.113196 0.162724 -0.000000 0.000000 0.000000 0.000000 0.000000 0.000000 0.000000 13.804980 -18.132580 -0.480952 67.887584 -20.209052 -29.221049 4.608536 11.796493 0.007532 0.602798 2.497568 0.010280 0.150567 -0.039106 0.000000 0.000000 0.000000 0.000000 0.000000 0.000000 0.000000 
4.144203 16.747827 6.038286 3.173502 26.185882 0.267454 -11.780995 5.212319 -0.256881 6.838064 14.787870 5.106356 0.569938 2.436186 39.265284 2.548064 12.647540 26.112535 5.687900 0.000000 -52.582900 8.497238 -1.270627 -1.791247 19.006214 -16.190746 -19.432299 1.861378 -0.957551 28.390627 -5.205685 -19.161305 -24.799931 -174.595500 -0.000000 -16.893800 2.473831 -5.186589 -0.855646 0.218073 -5.445785 -2.200760 -5.093845 -5.441192 3.281122 8.727812 -19.043023 -9.382775 -2.219274 -0.147783 -0.408611 0.000000 0.000000 0.000000 2.272900 15.181249 1.071096 -34.188498 -0.114512 -1.583909 -1.673229 -56.532950 0.001586 0.061123 0.212508 0.001183 -0.111083 0.158610 -0.000000 0.000000 0.000000 0.000000 0.000000 0.000000 0.000000 13.918641 -18.034436 -0.458183 68.176431 -19.427183 -28.919817 4.592272 11.895266 0.007388 0.809632 2.436659 0.014582 0.147594 -0.038905 0.000000 0.000000 0.000000 0.000000 0.000000 0.000000 0.000000 
4.157795 16.743026 6.161164 3.255160 25.755402 0.303825 -11.738878 5.148121 -0.251752 6.458941 14.261951 4.139356 0.590897 2.527679 40.975739 2.577246 13.373760 24.921276 5.879200 -0.000000 -50.752900 8.541532 -1.272914 -1.821814 18.906731 -16.066874 -18.904857 1.855830 -0.968487 28.563602 -5.208738 -19.059635 -25.246343 -174.441100 0.000000 -17.142000 2.377750 -5.144815 -0.803572 0.185158 -5.395915 -2.194185 -5.134897 -5.388195 3.267172 8.792002 -18.988163 -9.370409 -2.251782 -0.150630 -0.406214 0.000000 0.000000 0.000000 2.286943 15.128406 1.012455 -35.072890 0.340333 -1.206832 -1.675476 -56.960873 0.001775 -0.039226 0.256564 0.001182 -0.109930 0.153665 -0.000000 0.000000 0.000000 0.000000 0.000000 0.000000 0.000000 14.044707 -17.933133 -0.439641 68.461771 -18.583760 -28.522289 4.574827 12.035024 0.007177 1.027635 2.347933 0.018684 0.144489 -0.038521 0.000000 0.000000 0.000000 0.000000 0.000000 0.000000 0.000000 
4.169958 16.738906 6.282195 3.326242 25.297203 0.337130 -11.697546 5.076982 -0.256680 6.087544 13.807013 3.131719 0.613483 2.616370 42.607217 2.612410 14.217051 23.546626 6.075800 0.000000 -49.231600 8.585731 -1.277023 -1.847693 18.817085 -15.940870 -18.363595 1.853325 -0.974205 28.674007 -5.204571 -18.932988 -25.643220 -174.313900 -0.000000 -17.314200 2.278051 -5.095864 -0.749346 0.150578 -5.338465 -2.187136 -5.178403 -5.327611 3.253798 8.855931 -18.922370 -9.346430 -2.288036 -0.153958 -0.400881 0.000000 0.000000 0.000000 2.294449 15.079042 0.951654 -35.992359 0.806189 -0.810301 -1.682987 -57.274487 0.001757 -0.082981 0.323765 0.001082 -0.109684 0.147966 0.000000 0.000000 0.000000 0.000000 0.000000 0.000000 0.000000 14.183949 -17.820204 -0.426765 68.736981 -17.687616 -28.027897 4.556885 12.222151 0.006904 1.258921 2.231191 0.022386 0.141261 -0.037955 0.000000 0.000000 0.000000 0.000000 0.000000 0.000000 0.000000 
4.180638 16.735469 6.401696 3.390624 24.804185 0.370915 -11.655500 4.999116 -0.270156 5.721333 13.424106 2.093590 0.636157 2.699426 44.135309 2.655235 15.155701 22.029594 6.261100 0.000000 -48.032300 8.631144 -1.282641 -1.867459 18.733877 -15.808654 -17.812089 1.854190 -0.975067 28.727527 -5.191997 -18.772861 -25.997082 -174.213600 0.000000 -17.446400 2.170890 -5.038910 -0.696407 0.113825 -5.272387 -2.180673 -5.223448 -5.258485 3.239809 8.918549 -18.861465 -9.311569 -2.326420 -0.157633 -0.392698 0.000000 0.000000 0.000000 2.289509 15.013641 0.888383 -36.933050 1.323670 -0.399762 -1.694070 -57.503260 0.001588 -0.083484 0.407837 0.001183 -0.110085 0.141439 0.000000 0.000000 0.000000 0.000000 0.000000 0.000000 0.000000 14.330295 -17.711207 -0.417209 68.994498 -16.726506 -27.401331 4.537838 12.444317 0.006592 1.488980 2.096809 0.025488 0.138005 -0.037231 0.000000 0.000000 0.000000 0.000000 0.000000 0.000000 0.000000 
